HIERARCHY
ROOT joint_Root
{
	OFFSET 0.0 0.0 0.0
	CHANNELS 6 Xposition Yposition Zposition Zrotation Xrotation Yrotation 
	JOINT Hips
	{
		OFFSET -17.1583 93.1646 452.98
		CHANNELS 6 Xposition Yposition Zposition Zrotation Xrotation Yrotation 
		JOINT Spine
		{
			OFFSET 15.7357 0.0 0.0
			CHANNELS 6 Xposition Yposition Zposition Zrotation Xrotation Yrotation 
			JOINT Chest
			{
				OFFSET 8.98455 -0.406207 0.0
				CHANNELS 6 Xposition Yposition Zposition Zrotation Xrotation Yrotation 
				JOINT Neck
				{
					OFFSET 16.3773 0.0 0.0
					CHANNELS 6 Xposition Yposition Zposition Zrotation Xrotation Yrotation 
					JOINT Head
					{
						OFFSET 6.45672 0.0 0.0
						CHANNELS 6 Xposition Yposition Zposition Zrotation Xrotation Yrotation 
						End Site
						{
							OFFSET 0.0 0.0 0.0
						}
					}
				}
				JOINT Shoulder_L
				{
					OFFSET 12.9942 -0.242716 4.98039
					CHANNELS 6 Xposition Yposition Zposition Zrotation Xrotation Yrotation 
					JOINT UpperArm_L
					{
						OFFSET 5.34809 0.0 0.0
						CHANNELS 6 Xposition Yposition Zposition Zrotation Xrotation Yrotation 
						JOINT LowerArm_L
						{
							OFFSET 24.3286 1.87007e-05 0.0
							CHANNELS 6 Xposition Yposition Zposition Zrotation Xrotation Yrotation 
							JOINT Hand_L
							{
								OFFSET 22.2916 0.0 0.0
								CHANNELS 6 Xposition Yposition Zposition Zrotation Xrotation Yrotation 
								End Site
								{
									OFFSET 0.0 0.0 0.0
								}
							}
						}
					}
				}
				JOINT Shoulder_R
				{
					OFFSET 12.9945 -0.242716 -4.98039
					CHANNELS 6 Xposition Yposition Zposition Zrotation Xrotation Yrotation 
					JOINT UpperArm_R
					{
						OFFSET -5.34813 0.0 0.0
						CHANNELS 6 Xposition Yposition Zposition Zrotation Xrotation Yrotation 
						JOINT LowerArm_R
						{
							OFFSET -24.3289 0.000322201 0.0
							CHANNELS 6 Xposition Yposition Zposition Zrotation Xrotation Yrotation 
							JOINT Hand_R
							{
								OFFSET -22.2915 -0.000108084 0.0
								CHANNELS 6 Xposition Yposition Zposition Zrotation Xrotation Yrotation 
								End Site
								{
									OFFSET 0.0 0.0 0.0
								}
							}
						}
					}
				}
			}
		}
		JOINT UpperLeg_L
		{
			OFFSET -2.19248 -6.46944 0.0
			CHANNELS 6 Xposition Yposition Zposition Zrotation Xrotation Yrotation 
			JOINT LowerLeg_L
			{
				OFFSET 39.0811 0.0 -1.23785e-05
				CHANNELS 6 Xposition Yposition Zposition Zrotation Xrotation Yrotation 
				JOINT Foot_L
				{
					OFFSET 40.9854 0.0 -1.26872e-05
					CHANNELS 6 Xposition Yposition Zposition Zrotation Xrotation Yrotation 
					JOINT Toes_L
					{
						OFFSET 11.7543 0.0 0.0
						CHANNELS 6 Xposition Yposition Zposition Zrotation Xrotation Yrotation 
						End Site
						{
							OFFSET 0.0 0.0 0.0
						}
					}
				}
			}
		}
		JOINT UpperLeg_R
		{
			OFFSET -2.19251 6.46944 0.0
			CHANNELS 6 Xposition Yposition Zposition Zrotation Xrotation Yrotation 
			JOINT LowerLeg_R
			{
				OFFSET -39.0811 -0.00228153 -0.0401928
				CHANNELS 6 Xposition Yposition Zposition Zrotation Xrotation Yrotation 
				JOINT Foot_R
				{
					OFFSET -40.9854 0.0 0.0
					CHANNELS 6 Xposition Yposition Zposition Zrotation Xrotation Yrotation 
					JOINT Toes_R
					{
						OFFSET -11.7543 0.0 0.0
						CHANNELS 6 Xposition Yposition Zposition Zrotation Xrotation Yrotation 
						End Site
						{
							OFFSET 0.0 0.0 0.0
						}
					}
				}
			}
		}
	}
}
MOTION
Frames:	4
Frame Time:	0.0333333
0.000000 0.000000 0.000000 0.000000 0.000000 -0.000000 1.058880 95.343800 -410.390000 90.538100 2.299150 -20.655700 15.735700 0.000005 -0.000001 127.004000 85.140200 -126.144000 8.984550 -0.406207 -0.000000 -0.043620 5.789850 1.721860 16.377300 -0.000001 -0.000001 -9.049540 -0.676348 0.518656 6.456720 -0.000001 -0.000000 -1.256620 -3.477360 -2.330010 12.994200 -0.242716 4.980390 -90.641300 1.855610 -70.931100 5.348090 -0.000007 -0.000001 -33.116700 -21.097300 21.661500 24.328600 0.000019 0.000005 1.068430 17.695500 -3.510660 22.291600 -0.000001 0.000005 49.293400 3.749360 27.665200 12.994500 -0.242716 -4.980390 90.317800 -1.357410 -76.825700 -5.348130 -0.000001 -0.000004 -61.202100 0.532208 -9.410490 -24.328900 0.000322 -0.000009 -6.946020 -0.222607 -88.157900 -22.291500 -0.000108 -0.000004 30.957700 5.687910 -19.036000 -2.192480 -6.469440 -0.000000 -179.809000 -0.086372 -42.146000 39.081100 -0.000007 -0.000012 0.022507 -0.047951 25.144400 40.985400 -0.000006 -0.000013 -4.748310 13.471900 -70.551300 11.754300 -0.000000 0.000003 0.001948 0.044766 -14.760900 -2.192510 6.469440 -0.000001 -179.044000 12.651200 -178.267000 -39.081100 -0.002282 -0.040193 0.075652 -0.274003 14.785800 -40.985400 0.000008 0.000006 -1.960240 -2.429160 -20.926000 -11.754300 -0.000006 -0.000006 0.000207 0.164112 -9.917180
0.000000 0.000000 0.000000 0.000000 0.000000 -0.000000 1.487610 94.285200 -402.696000 89.697000 1.376650 -19.213900 15.735700 0.000005 -0.000001 125.829000 84.772400 -124.700000 8.984550 -0.406207 -0.000000 0.658159 6.047910 2.223400 16.377300 -0.000001 -0.000001 -9.267920 -0.309883 0.611972 6.456720 -0.000001 -0.000000 -1.055650 -3.179800 -2.838220 12.994200 -0.242716 4.980390 -90.559800 1.656800 -71.330200 5.348090 -0.000007 -0.000001 -39.652800 -19.895600 17.748000 24.328600 0.000019 0.000005 0.892218 18.821700 -2.763960 22.291600 -0.000001 0.000005 51.288400 3.586550 29.837000 12.994500 -0.242716 -4.980390 90.240700 -1.117290 -77.838500 -5.348130 -0.000001 -0.000004 -64.631900 2.249670 -5.117340 -24.328900 0.000322 -0.000009 0.694522 0.096949 -82.871800 -22.291500 -0.000108 -0.000004 42.748600 5.671390 -24.506000 -2.192480 -6.469440 -0.000000 179.379000 -2.932050 -38.723100 39.081100 -0.000007 -0.000012 0.022292 -0.058591 20.830900 40.985400 -0.000006 -0.000013 -6.805530 12.070600 -73.149200 11.754300 -0.000000 0.000003 0.002107 0.051021 -14.507200 -2.192510 6.469440 -0.000001 -177.911000 5.954830 -179.294000 -39.081100 -0.002282 -0.040193 0.099068 -0.206706 24.855800 -40.985400 0.000008 0.000006 -3.821910 0.997961 -18.605200 -11.754300 -0.000006 -0.000006 0.000575 0.157354 -10.191600
0.000000 0.000000 0.000000 0.000000 0.000000 -0.000000 1.992670 92.215400 -394.779000 90.257400 0.877654 -17.376700 15.735700 0.000005 -0.000001 120.204000 84.453700 -119.358000 8.984550 -0.406207 -0.000000 1.788980 5.532930 1.603930 16.377300 -0.000001 -0.000001 -9.009040 -0.304921 0.727686 6.456720 -0.000001 -0.000000 -1.273460 -2.619400 -2.151950 12.994200 -0.242716 4.980390 -90.466200 1.414480 -71.757800 5.348090 -0.000007 -0.000001 -47.583100 -18.378100 11.146200 24.328600 0.000019 0.000005 0.674166 18.627400 -2.109400 22.291600 -0.000001 0.000005 45.259000 3.580660 29.884500 12.994500 -0.242716 -4.980390 90.246400 -1.145450 -77.859900 -5.348130 -0.000001 -0.000004 -69.447900 4.724370 -1.128540 -24.328900 0.000322 -0.000009 4.671710 1.642630 -70.657900 -22.291500 -0.000108 -0.000004 43.338700 5.687770 -21.993600 -2.192480 -6.469440 -0.000000 177.434000 -4.833160 -36.460800 39.081100 -0.000007 -0.000012 0.070350 -0.151702 24.878900 40.985400 -0.000006 -0.000013 -3.853320 11.790100 -75.693200 11.754300 -0.000000 0.000003 0.002084 0.050071 -14.545700 -2.192510 6.469440 -0.000001 -177.806000 1.607050 177.736000 -39.081100 -0.002282 -0.040193 0.059891 -0.068498 39.572500 -40.985400 0.000008 0.000006 -2.474280 3.081180 -24.775100 -11.754300 -0.000006 -0.000006 0.000732 0.154280 -10.316300
0.000000 0.000000 0.000000 0.000000 0.000000 -0.000000 2.646860 89.504500 -387.484000 92.023700 1.052160 -17.267400 15.735700 0.000005 -0.000001 112.249000 84.785700 -111.923000 8.984550 -0.406207 -0.000000 1.879500 3.929410 0.588054 16.377300 -0.000001 -0.000001 -8.602680 0.010041 0.865096 6.456720 -0.000001 -0.000000 -1.798340 -1.740850 -2.263330 12.994200 -0.242716 4.980390 -90.927100 2.808140 -71.721700 5.348090 -0.000007 -0.000001 -54.174900 -13.720300 2.571470 24.328600 0.000019 0.000005 0.606733 16.787600 -2.100680 22.291600 -0.000001 0.000005 29.615800 3.820770 26.503100 12.994500 -0.242716 -4.980390 90.003400 -0.015843 -77.039100 -5.348130 -0.000001 -0.000004 -71.440600 6.487560 1.717630 -24.328900 0.000322 -0.000009 3.191590 2.188330 -55.568800 -22.291500 -0.000108 -0.000004 22.227800 5.661780 -12.948500 -2.192480 -6.469440 -0.000000 174.790000 -3.410370 -40.015600 39.081100 -0.000007 -0.000012 0.581242 -0.748319 37.839200 40.985400 -0.000006 -0.000013 5.072410 9.863240 -72.236500 11.754300 -0.000000 0.000003 0.002229 0.110856 -12.081400 -2.192510 6.469440 -0.000001 179.844000 2.446040 168.794000 -39.081100 -0.002282 -0.040193 0.192145 -0.116361 58.372100 -40.985400 0.000008 0.000006 -3.779770 -2.191210 -30.679100 -11.754300 -0.000006 -0.000006 0.000853 0.151810 -10.416600
